<mxfile host="65bd71144e">
    <diagram id="8OG7uOGR_ExUNxCXnbUd" name="Page-1">
        <mxGraphModel dx="1144" dy="519" grid="1" gridSize="10" guides="1" tooltips="1" connect="1" arrows="1" fold="1" page="1" pageScale="1" pageWidth="850" pageHeight="1100" math="0" shadow="0">
            <root>
                <mxCell id="0"/>
                <mxCell id="1" parent="0"/>
                <mxCell id="5" value="User Type Check&amp;nbsp;" style="html=1;align=center;verticalAlign=top;rounded=1;absoluteArcSize=1;arcSize=10;dashed=0;strokeColor=#3399FF;" vertex="1" parent="1">
                    <mxGeometry x="420" y="245" width="130" height="35" as="geometry"/>
                </mxCell>
                <mxCell id="9" value="Request UserName&lt;br&gt;&amp;nbsp;and Password" style="html=1;points=[];perimeter=orthogonalPerimeter;strokeColor=#3399FF;" vertex="1" parent="1">
                    <mxGeometry x="80" y="240" width="155" height="50" as="geometry"/>
                </mxCell>
                <mxCell id="10" value="Input username or password/ [invalid]" style="edgeStyle=orthogonalEdgeStyle;html=1;align=left;spacingLeft=2;endArrow=block;rounded=0;entryX=1;entryY=0;strokeColor=#3399FF;exitX=0.542;exitY=-0.02;exitDx=0;exitDy=0;exitPerimeter=0;" edge="1" target="9" parent="1" source="9">
                    <mxGeometry x="-0.0455" y="10" relative="1" as="geometry">
                        <mxPoint x="360" y="400" as="sourcePoint"/>
                        <Array as="points">
                            <mxPoint x="164" y="190"/>
                            <mxPoint x="260" y="190"/>
                            <mxPoint x="260" y="240"/>
                        </Array>
                        <mxPoint as="offset"/>
                    </mxGeometry>
                </mxCell>
                <mxCell id="11" value="[User-&amp;gt;IsCustomer]" style="html=1;verticalAlign=top;labelBackgroundColor=none;endArrow=open;endFill=0;strokeColor=#3399FF;entryX=-0.003;entryY=0.364;entryDx=0;entryDy=0;entryPerimeter=0;" edge="1" parent="1" target="19">
                    <mxGeometry x="0.2105" y="20" width="160" relative="1" as="geometry">
                        <mxPoint x="550" y="262" as="sourcePoint"/>
                        <mxPoint x="660" y="220" as="targetPoint"/>
                        <Array as="points">
                            <mxPoint x="550" y="250"/>
                            <mxPoint x="550" y="220"/>
                        </Array>
                        <mxPoint as="offset"/>
                    </mxGeometry>
                </mxCell>
                <mxCell id="12" value="[User-&amp;gt;IsServiceProvider]" style="html=1;verticalAlign=top;labelBackgroundColor=none;endArrow=open;endFill=0;strokeColor=#3399FF;exitX=1;exitY=1;exitDx=0;exitDy=0;entryX=0;entryY=0.764;entryDx=0;entryDy=0;entryPerimeter=0;" edge="1" parent="1" source="5" target="19">
                    <mxGeometry x="0.2" width="160" relative="1" as="geometry">
                        <mxPoint x="550" y="362" as="sourcePoint"/>
                        <mxPoint x="660" y="320" as="targetPoint"/>
                        <Array as="points">
                            <mxPoint x="550" y="320"/>
                        </Array>
                        <mxPoint as="offset"/>
                    </mxGeometry>
                </mxCell>
                <mxCell id="15" value="Input username and password/ [valid]]" style="html=1;verticalAlign=top;labelBackgroundColor=none;endArrow=open;endFill=0;strokeColor=#3399FF;" edge="1" parent="1">
                    <mxGeometry x="0.1356" y="-15" width="160" relative="1" as="geometry">
                        <mxPoint x="235" y="264.5" as="sourcePoint"/>
                        <mxPoint x="420" y="265" as="targetPoint"/>
                        <Array as="points">
                            <mxPoint x="245" y="264.5"/>
                        </Array>
                        <mxPoint as="offset"/>
                    </mxGeometry>
                </mxCell>
                <mxCell id="16" value="New Account &lt;br&gt;Creation Form&lt;br&gt;Select User Type" style="html=1;align=center;verticalAlign=top;rounded=1;absoluteArcSize=1;arcSize=10;dashed=0;strokeColor=#3399FF;" vertex="1" parent="1">
                    <mxGeometry x="92.5" y="390" width="127.5" height="60" as="geometry"/>
                </mxCell>
                <mxCell id="17" value="Sign-Up option/ [Selected]" style="html=1;verticalAlign=top;labelBackgroundColor=none;endArrow=open;endFill=0;strokeColor=#3399FF;entryX=0.45;entryY=-0.1;entryDx=0;entryDy=0;entryPerimeter=0;" edge="1" parent="1" target="16">
                    <mxGeometry x="-0.1425" y="70" width="160" relative="1" as="geometry">
                        <mxPoint x="150" y="290" as="sourcePoint"/>
                        <mxPoint x="310" y="290" as="targetPoint"/>
                        <mxPoint as="offset"/>
                    </mxGeometry>
                </mxCell>
                <mxCell id="18" value="Create Customer&lt;br&gt;Form" style="html=1;align=center;verticalAlign=top;rounded=1;absoluteArcSize=1;arcSize=10;dashed=0;strokeColor=#3399FF;" vertex="1" parent="1">
                    <mxGeometry x="410" y="480" width="130" height="50" as="geometry"/>
                </mxCell>
                <mxCell id="19" value="User Validated" style="shape=umlFrame;tabWidth=110;tabHeight=30;tabPosition=left;html=1;boundedLbl=1;labelInHeader=1;width=120;height=30;strokeColor=#3399FF;" vertex="1" parent="1">
                    <mxGeometry x="670" y="130" width="290" height="250" as="geometry"/>
                </mxCell>
                <mxCell id="20" value="Customer Interface" style="text;strokeColor=#3399FF;" vertex="1" parent="19">
                    <mxGeometry width="120" height="30" relative="1" as="geometry">
                        <mxPoint x="40" y="50" as="offset"/>
                    </mxGeometry>
                </mxCell>
                <mxCell id="21" value="" style="line;strokeWidth=1;dashed=1;labelPosition=center;verticalLabelPosition=bottom;align=left;verticalAlign=top;spacingLeft=20;spacingTop=15;" vertex="1" parent="19">
                    <mxGeometry y="125" width="290" height="10" as="geometry"/>
                </mxCell>
                <mxCell id="31" value="Service Provider Interface" style="text;strokeColor=#3399FF;" vertex="1" parent="19">
                    <mxGeometry x="40" y="160" width="150" height="30" as="geometry"/>
                </mxCell>
                <mxCell id="32" value="Create Service &lt;br&gt;Provider Form" style="html=1;align=center;verticalAlign=top;rounded=1;absoluteArcSize=1;arcSize=10;dashed=0;strokeColor=#3399FF;" vertex="1" parent="1">
                    <mxGeometry x="410" y="395" width="130" height="50" as="geometry"/>
                </mxCell>
                <mxCell id="33" value="User Type Select/ [ Service Provider]" style="html=1;verticalAlign=top;labelBackgroundColor=none;endArrow=open;endFill=0;strokeColor=#3399FF;entryX=0;entryY=0.5;entryDx=0;entryDy=0;" edge="1" parent="1" target="32">
                    <mxGeometry x="-0.0018" y="30" width="160" relative="1" as="geometry">
                        <mxPoint x="220" y="419.5" as="sourcePoint"/>
                        <mxPoint x="380" y="420" as="targetPoint"/>
                        <Array as="points">
                            <mxPoint x="230" y="419.5"/>
                            <mxPoint x="315" y="420"/>
                        </Array>
                        <mxPoint as="offset"/>
                    </mxGeometry>
                </mxCell>
                <mxCell id="34" value="User Type Select/ [ Customer]" style="html=1;verticalAlign=top;labelBackgroundColor=none;endArrow=open;endFill=0;strokeColor=#3399FF;entryX=0;entryY=0.5;entryDx=0;entryDy=0;exitX=0.922;exitY=1;exitDx=0;exitDy=0;exitPerimeter=0;" edge="1" parent="1" source="16">
                    <mxGeometry x="0.1373" y="25" width="160" relative="1" as="geometry">
                        <mxPoint x="220" y="504.5" as="sourcePoint"/>
                        <mxPoint x="410" y="505" as="targetPoint"/>
                        <Array as="points">
                            <mxPoint x="210" y="505"/>
                            <mxPoint x="315" y="505"/>
                        </Array>
                        <mxPoint as="offset"/>
                    </mxGeometry>
                </mxCell>
                <mxCell id="39" value="" style="ellipse;html=1;shape=endState;fillColor=#000000;strokeColor=#3399FF;" vertex="1" parent="1">
                    <mxGeometry x="1040" y="240" width="30" height="30" as="geometry"/>
                </mxCell>
                <mxCell id="40" value="" style="ellipse;html=1;shape=startState;fillColor=#000000;strokeColor=#3399FF;" vertex="1" parent="1">
                    <mxGeometry x="10" y="250" width="30" height="30" as="geometry"/>
                </mxCell>
                <mxCell id="41" value="" style="edgeStyle=orthogonalEdgeStyle;html=1;verticalAlign=bottom;endArrow=open;endSize=8;strokeColor=#3399FF;" edge="1" source="40" parent="1" target="9">
                    <mxGeometry relative="1" as="geometry">
                        <mxPoint x="80" y="275" as="targetPoint"/>
                        <Array as="points"/>
                    </mxGeometry>
                </mxCell>
                <mxCell id="42" value="Logout/[Slected]" style="html=1;verticalAlign=top;labelBackgroundColor=none;endArrow=open;endFill=0;strokeColor=#3399FF;entryX=0;entryY=0.5;entryDx=0;entryDy=0;" edge="1" parent="1" target="39">
                    <mxGeometry x="-0.0044" y="25" width="160" relative="1" as="geometry">
                        <mxPoint x="960" y="254.5" as="sourcePoint"/>
                        <mxPoint x="1010" y="255" as="targetPoint"/>
                        <Array as="points">
                            <mxPoint x="970" y="254.5"/>
                        </Array>
                        <mxPoint as="offset"/>
                    </mxGeometry>
                </mxCell>
                <mxCell id="46" value="New Customer Accout/ [Created]" style="html=1;verticalAlign=top;labelBackgroundColor=none;endArrow=open;endFill=0;strokeColor=#3399FF;entryX=0.5;entryY=1;entryDx=0;entryDy=0;exitX=0.922;exitY=1;exitDx=0;exitDy=0;exitPerimeter=0;" edge="1" parent="1" target="40">
                    <mxGeometry x="-0.2174" y="-25" width="160" relative="1" as="geometry">
                        <mxPoint x="470.05500000000006" y="530" as="sourcePoint"/>
                        <mxPoint x="670" y="585" as="targetPoint"/>
                        <Array as="points">
                            <mxPoint x="470" y="585"/>
                            <mxPoint x="25" y="585"/>
                        </Array>
                        <mxPoint as="offset"/>
                    </mxGeometry>
                </mxCell>
                <mxCell id="47" value="New Service Provider Accout/ [Created]" style="html=1;verticalAlign=top;labelBackgroundColor=none;endArrow=open;endFill=0;strokeColor=#3399FF;entryX=0.5;entryY=1;entryDx=0;entryDy=0;exitX=1;exitY=0.5;exitDx=0;exitDy=0;" edge="1" parent="1" source="32" target="40">
                    <mxGeometry x="-0.0485" width="160" relative="1" as="geometry">
                        <mxPoint x="480.05500000000006" y="540" as="sourcePoint"/>
                        <mxPoint x="35" y="290" as="targetPoint"/>
                        <Array as="points">
                            <mxPoint x="590" y="420"/>
                            <mxPoint x="590" y="610"/>
                            <mxPoint x="260" y="610"/>
                            <mxPoint x="25" y="610"/>
                        </Array>
                        <mxPoint as="offset"/>
                    </mxGeometry>
                </mxCell>
            </root>
        </mxGraphModel>
    </diagram>
</mxfile>